<?xml version="1.0" encoding="utf-8"?><!-- Uploaded to: SVG Repo, www.svgrepo.com, Generator: SVG Repo Mixer Tools -->
<svg width="24px" height="24px" viewBox="0 0 24 24" fill="none" xmlns="http://www.w3.org/2000/svg">
<path d="M19.7808 10H20C20.5523 10 21 9.55228 21 9C21 8.44772 20.5523 8 20 8H4C3.44772 8 3 8.44772 3 9C3 9.55228 3.44772 10 4 10H4.21922C4.67809 10 5.07807 10.3123 5.18937 10.7575L6.62127 16.4851C6.84385 17.3754 7.64382 18 8.56155 18H15.4384C16.3562 18 17.1561 17.3754 17.3787 16.4851L18.8106 10.7575C18.9219 10.3123 19.3219 10 19.7808 10Z" fill="#2A4157" fill-opacity="0.24"/>
<path d="M8.5 3.5L6.5 6.5M15.5 3.5L17.5 6.5" stroke="#222222" stroke-linecap="round"/>
<path d="M10.5 14.5L9.5 11.5M13.5 14.5L14.5 11.5" stroke="#222222" stroke-linecap="round"/>
</svg>